<?xml version="1.0" encoding="UTF-8"?><svg id="Layer_1" xmlns="http://www.w3.org/2000/svg" viewBox="0 0 900 566.67"><path d="M868.75,62.5H31.25C13.99,62.5,0,48.51,0,31.25S13.99,0,31.25,0H868.75c17.26,0,31.25,13.99,31.25,31.25s-13.99,31.25-31.25,31.25Z"/><path d="M868.75,314.58H31.25c-17.26,0-31.25-13.99-31.25-31.25s13.99-31.25,31.25-31.25H868.75c17.26,0,31.25,13.99,31.25,31.25s-13.99,31.25-31.25,31.25Z"/><path d="M868.75,566.67H31.25c-17.26,0-31.25-13.99-31.25-31.25s13.99-31.25,31.25-31.25H868.75c17.26,0,31.25,13.99,31.25,31.25s-13.99,31.25-31.25,31.25Z"/></svg>